# xmcd CD database file
#
# Track frame offsets:
#	150
#	20739
#	47903
#	71226
#	95521
#	122132
#	147167
#	171157
#	194678
#	213153
#	239780
#
# Disc length: 3502 seconds
#
# Revision: 0
# Processed by: cddbd v1.5.2PL0 Copyright (c) Steve Scherf et al.
# Submitted via: CDex 1.51
#
DISCID=af0dac0b
DTITLE=Ronny Cabarrocas - Con otro aire
DYEAR=1900
DGENRE=Salsa
TTITLE0=Bolas de esquina
TTITLE1=Lo inesperado
TTITLE2=Son para ti
TTITLE3=No juegues conmigo
TTITLE4=Que tiene esa nena
TTITLE5=Hoy mi Habana
TTITLE6=Calma
TTITLE7=La rosa roja
TTITLE8=Bongo Bongo
TTITLE9=Nuestra musica cubana
TTITLE10=Ven y baila
EXTD=
EXTT0=
EXTT1=
EXTT2=
EXTT3=
EXTT4=
EXTT5=
EXTT6=
EXTT7=
EXTT8=
EXTT9=
EXTT10=
PLAYORDER=
